<svg width="25" height="24" viewBox="0 0 25 24" fill="none" xmlns="http://www.w3.org/2000/svg">
<path d="M6.08594 19H9.77794V13.923C9.77794 13.6943 9.8556 13.5027 10.0109 13.348C10.1656 13.1927 10.3573 13.115 10.5859 13.115H13.5859C13.8146 13.115 14.0066 13.1927 14.1619 13.348C14.3166 13.5027 14.3939 13.6943 14.3939 13.923V19H18.0859V10.308C18.0859 10.2053 18.0636 10.112 18.0189 10.028C17.9743 9.94399 17.9133 9.87066 17.8359 9.80799L12.4519 5.74999C12.3493 5.66066 12.2273 5.61599 12.0859 5.61599C11.9446 5.61599 11.8229 5.66066 11.7209 5.74999L6.33594 9.80799C6.25927 9.87199 6.19827 9.94532 6.15294 10.028C6.1076 10.1107 6.08527 10.204 6.08594 10.308V19ZM5.08594 19V10.308C5.08594 10.052 5.14327 9.80966 5.25794 9.58099C5.3726 9.35232 5.5306 9.16399 5.73194 9.01599L11.1169 4.93799C11.3989 4.72266 11.7209 4.61499 12.0829 4.61499C12.4449 4.61499 12.7689 4.72266 13.0549 4.93799L18.4399 9.01499C18.6419 9.16299 18.7999 9.35166 18.9139 9.58099C19.0286 9.80966 19.0859 10.052 19.0859 10.308V19C19.0859 19.268 18.9863 19.5017 18.7869 19.701C18.5876 19.9003 18.3539 20 18.0859 20H14.2019C13.9726 20 13.7806 19.9227 13.6259 19.768C13.4713 19.6127 13.3939 19.4207 13.3939 19.192V14.116H10.7779V19.192C10.7779 19.4213 10.7006 19.6133 10.5459 19.768C10.3913 19.9227 10.1996 20 9.97094 20H6.08594C5.81794 20 5.58427 19.9003 5.38494 19.701C5.1856 19.5017 5.08594 19.268 5.08594 19Z" fill="#173481"/>
</svg>
